<svg xmlns="http://www.w3.org/2000/svg" viewBox="0 0 45 45">
  <g fill="none" fill-rule="evenodd" stroke="#000" stroke-width="1.5" stroke-linecap="round" stroke-linejoin="round">
    <path d="M22 10c10.5 1 16.5 8 16 29H15c0-9 10-6.5 8-21z" fill="#000"/>
    <path d="M24 18c.38 2.91-5.55 7.37-8 9-3 2-2.82 4.34-5 4-1.042-.94 1.41-2.604 0-3-1.409-.393-2.5-2-2.5-2 0 3 3.5 5.5 3.5 5.5H14s4.5 3.5 4.5 5.5c0 1.5-2.5 1.5-2.5 1.5h6s.5 1.5 1 3c.5 1.5 1.5 1.5 1.5 1.5h6s1 0 1.5-1.5c.5-1.5 1-3 1-3h6s-2.5 0-2.5-1.5c0-2 4.5-5.5 4.5-5.5h-5.5S23 29 23 28c0-1 2-1 2-1.5 0-.5-.5-1-1-1-1.5 0-3.5 1.5-3.5 1.5s-1.5-1-3-1.5c-1.5-.5-4-1-4-1s-1.5 1.5-3 1.5c-1.5 0-2.5-1-2.5-1" fill="#000"/>
    <path d="M9.5 12.5a.5.5 0 1 1-1 0 .5.5 0 1 1 1 0z" fill="#ececec" stroke="#ececec"/>
    <path d="M14.5 9.5a.5 1.5 0 1 1-1 0 .5 1.5 0 1 1 1 0z" fill="#ececec" stroke="#ececec"/>
  </g>
</svg>
