<svg xmlns="http://www.w3.org/2000/svg" viewBox="0 0 45 45">
  <g fill="none" fill-rule="evenodd" stroke="#000" stroke-width="1.5" stroke-linecap="round" stroke-linejoin="round">
    <g fill="#fff" stroke-linecap="butt">
      <path d="M9 36c3.39-.97 10.11.43 13.5-2 3.39 2.43 10.11 1.03 13.5 2 0 0-1.65 2.16-3.5 2.5-1.85.34-5.65.15-10-.5-4.35-.65-8.15-.16-10 .5-1.85-.34-3.5-2.5-3.5-2.5z"/>
      <path d="M15 32c1.38 1.23 3.55 1.5 5.5 1.5 1.95 0 4.12-.27 5.5-1.5 0 0-1.5-1.5-5.5-1.5-4 0-5.5 1.5-5.5 1.5z"/>
      <path d="M25 8a2.5 2.5 0 1 1-5 0 2.5 2.5 0 1 1 5 0z"/>
    </g>
    <path d="M17.5 26h10M15 30h15m-7.5-14.5v5M20 18h5" stroke-linejoin="miter"/>
    <path d="M17.5 21h5M20 22.5h5" stroke-linejoin="miter"/>
    <path d="M17.5 25h10M15 29h15" stroke-linecap="butt" stroke-linejoin="miter"/>
    <path d="M12 35.5h21" stroke-linecap="butt"/>
    <path d="M9 36h27" stroke-linecap="butt" stroke-linejoin="miter"/>
  </g>
</svg>
